<svg width="68" height="145" viewBox="0 0 68 145" fill="none" xmlns="http://www.w3.org/2000/svg">
<path d="M5.7984 39.1176V35.856H38.656C46.5483 35.856 52.4675 37.7083 56.4136 41.4128C60.3597 45.0368 62.3328 49.7077 62.3328 55.4256V58.6872C62.3328 62.8749 61.0845 66.4587 58.588 69.4384C56.0915 72.4181 52.5883 74.512 48.0784 75.72C53.7157 76.6864 58.1048 78.8205 61.2456 82.1224C64.3864 85.4243 65.9568 89.5717 65.9568 94.5648V97.8264C65.9568 103.705 63.9032 108.537 59.796 112.322C55.7693 116.107 49.7293 118 41.676 118H5.7984V114.859L12.4424 114.134C13.7309 113.973 14.496 113.651 14.7376 113.168C14.9792 112.685 15.1 111.034 15.1 108.215V45.6408C15.1 42.8221 14.9792 41.1712 14.7376 40.688C14.496 40.2048 13.7309 39.8827 12.4424 39.7216L5.7984 39.1176ZM38.656 39.7216H25.6096V74.2704H38.656C47.0315 74.2704 51.2192 69.3981 51.2192 59.6536V54.7008C51.2192 44.7147 47.0315 39.7216 38.656 39.7216ZM41.676 78.136H25.6096V114.134H41.676C50.4541 114.134 54.8432 108.94 54.8432 98.5512V93.5984C54.8432 88.6053 53.7157 84.78 51.4608 82.1224C49.2864 79.4648 46.0248 78.136 41.676 78.136Z" fill="#A9A9A9"/>
<path d="M15.4859 86.2203C14.9962 86.2203 14.5801 86.1224 14.2373 85.9266C13.8946 85.7307 13.7232 85.3635 13.7232 84.8249C13.7232 84.1394 13.8946 83.3559 14.2373 82.4746C14.5801 81.5932 14.9718 80.7363 15.4124 79.9039C15.8531 79.0226 16.2448 78.3126 16.5876 77.774C14.8738 79.5857 13.0866 81.2994 11.226 82.9153C10.2957 83.6987 9.26743 84.4331 8.14125 85.1186C7.01507 85.8041 5.81545 86.1469 4.54237 86.1469C4.05273 86.1469 3.70998 86 3.51412 85.7062C3.31827 85.3635 3.22034 84.9718 3.22034 84.5311C3.22034 84.2863 3.24482 84.1149 3.29379 84.0169C3.53861 82.1073 4.15066 80.1243 5.12995 78.0678C6.10923 76.0113 7.30886 74.0772 8.72882 72.2655C10.1488 70.4538 11.5932 68.9849 13.0622 67.8587C14.7269 66.5857 16.5631 65.9491 18.5706 65.9491H27.017C27.2618 65.9491 27.3842 66.0471 27.3842 66.2429C27.3842 66.6346 27.1639 66.8305 26.7232 66.8305C26.2335 66.8305 25.7439 67.1488 25.2543 67.7853C24.7646 68.3729 24.3974 68.8625 24.1526 69.2542C23.8098 69.7928 23.2712 70.6987 22.5367 71.9717C21.8023 73.2448 21.0433 74.6403 20.2599 76.1582C19.5254 77.6271 18.8889 78.9981 18.3503 80.2712C17.8117 81.5443 17.5424 82.4746 17.5424 83.0621C17.5424 83.7476 17.8851 84.0904 18.5706 84.0904C19.3051 84.0904 20.1375 83.7476 21.0678 83.0621C21.9981 82.3766 22.9285 81.5443 23.8588 80.565C24.8381 79.5367 25.7194 78.5329 26.5029 77.5537C27.3352 76.5254 27.9963 75.7175 28.4859 75.1299C28.7797 75.4237 28.7552 75.8399 28.4125 76.3785C28.1187 76.8682 27.8494 77.2599 27.6045 77.5537C26.6253 78.8267 25.4991 80.1488 24.226 81.5198C22.9529 82.8418 21.5575 83.968 20.0396 84.8983C18.5706 85.7797 17.0527 86.2203 15.4859 86.2203ZM7.55368 83.6497C8.14125 83.6497 8.94916 83.2335 9.97741 82.4011C11.0546 81.5198 12.2053 80.4426 13.4294 79.1695C14.6535 77.8474 15.8042 76.4764 16.8814 75.0565C17.9586 73.5876 18.8399 72.2655 19.5254 71.0904C20.2599 69.8663 20.6271 68.936 20.6271 68.2994C20.6271 67.7608 20.4558 67.3936 20.113 67.1977C19.8192 67.0019 19.4275 66.9039 18.9379 66.9039C18.1544 66.9039 17.2976 67.1977 16.3672 67.7853C15.4859 68.3239 14.7759 68.8625 14.2373 69.4011C13.6497 69.9397 12.9397 70.7966 12.1074 71.9717C11.3239 73.0979 10.5405 74.3465 9.75707 75.7175C8.97364 77.0885 8.31262 78.4105 7.77402 79.6836C7.23541 80.9567 6.96611 81.9849 6.96611 82.7684C6.96611 83.3559 7.16196 83.6497 7.55368 83.6497ZM54.2616 87.1751C53.3802 87.1751 52.4499 87.0527 51.4706 86.8079C50.4913 86.5631 49.61 86.1714 48.8265 85.6328C48.0921 85.0452 47.6024 84.2618 47.3576 83.2825C47.3086 83.1356 47.2842 82.9153 47.2842 82.6215C47.2842 81.936 47.4311 81.177 47.7248 80.3446C48.0676 79.5122 48.4838 78.9247 48.9734 78.5819C49.1693 78.484 49.3162 78.484 49.4141 78.5819C49.561 78.6798 49.5855 78.7778 49.4876 78.8757C49.4386 79.0226 49.3651 79.2184 49.2672 79.4633C49.1693 79.6591 49.0958 79.8795 49.0469 80.1243C48.9 81.3974 49.1693 82.5235 49.8548 83.5028C50.1486 83.8945 50.4913 84.2618 50.883 84.6045C51.3237 84.9473 51.7399 85.2411 52.1316 85.4859C52.4744 85.6817 52.8906 85.8286 53.3802 85.9266C53.8699 85.9755 54.3595 86 54.8491 86C55.6326 86 56.3915 85.9021 57.126 85.7062C57.8604 85.5104 58.3991 85.1921 58.7418 84.7514C59.3783 83.968 59.6966 83.0866 59.6966 82.1073C59.6966 81.3729 59.5008 80.5894 59.109 79.7571C58.7173 78.9247 58.1053 78.0433 57.2729 77.113C56.7343 76.5254 56.2201 75.8889 55.7305 75.2034C55.2409 74.5179 54.9226 73.7834 54.7757 73C54.7267 72.8531 54.6778 72.7062 54.6288 72.5593C54.6288 72.4124 54.6288 72.2655 54.6288 72.1186C53.9923 73.049 53.3313 73.9303 52.6458 74.7627C52.0092 75.5461 51.4461 76.2316 50.9565 76.8192C50.7606 77.113 50.5893 77.2599 50.4424 77.2599C50.3444 77.2599 50.2955 77.1619 50.2955 76.9661C50.2955 76.5254 50.4913 76.0603 50.883 75.5706C51.2748 75.1299 51.7154 74.5913 52.2051 73.9548C52.6947 73.2693 53.0864 72.7307 53.3802 72.339C54.2126 71.1149 54.8247 70.1601 55.2164 69.4746C55.6571 68.7401 56.1222 68.0791 56.6119 67.4915C57.1505 66.855 57.8115 66.3408 58.5949 65.9491C59.4273 65.5574 60.2842 65.3616 61.1655 65.3616C62.1938 65.3616 63.1241 65.5329 63.9565 65.8757C64.8379 66.1695 65.303 66.9529 65.352 68.226C65.352 68.8135 65.2296 69.4256 64.9848 70.0621C64.7889 70.6497 64.5686 71.2128 64.3237 71.7514C64.1768 72.0452 63.9565 72.2655 63.6627 72.4124C63.4179 72.5103 63.2955 72.4614 63.2955 72.2655C63.2955 72.0697 63.32 71.8493 63.3689 71.6045C63.4179 71.3597 63.4424 71.1393 63.4424 70.9435C63.4424 70.1111 63.2955 69.3766 63.0017 68.7401C62.7569 68.0546 62.3896 67.565 61.9 67.2712C61.4104 66.9284 60.8962 66.757 60.3576 66.757C59.5742 66.757 58.8153 67.0753 58.0808 67.7118C57.3463 68.2994 56.9791 69.0828 56.9791 70.0621C56.9791 70.1601 56.9791 70.2825 56.9791 70.4294C56.9791 70.5763 57.0036 70.6987 57.0525 70.7966C57.2484 71.58 57.836 72.4614 58.8153 73.4407C59.7945 74.4199 60.5535 75.2768 61.0921 76.0113C62.0224 77.2844 62.4876 78.5819 62.4876 79.9039C62.4876 81.226 62.0959 82.4501 61.3124 83.5763C60.578 84.6535 59.5742 85.5104 58.3011 86.1469C57.077 86.8324 55.7305 87.1751 54.2616 87.1751Z" fill="#2F2F2F"/>
</svg>
