<svg width="454" height="145" viewBox="0 0 454 145" fill="none" xmlns="http://www.w3.org/2000/svg">
<path d="M5.7984 39.1176V35.856H38.656C46.5483 35.856 52.4675 37.7083 56.4136 41.4128C60.3597 45.0368 62.3328 49.7077 62.3328 55.4256V58.6872C62.3328 62.8749 61.0845 66.4587 58.588 69.4384C56.0915 72.4181 52.5883 74.512 48.0784 75.72C53.7157 76.6864 58.1048 78.8205 61.2456 82.1224C64.3864 85.4243 65.9568 89.5717 65.9568 94.5648V97.8264C65.9568 103.705 63.9032 108.537 59.796 112.322C55.7693 116.107 49.7293 118 41.676 118H5.7984V114.859L12.4424 114.134C13.7309 113.973 14.496 113.651 14.7376 113.168C14.9792 112.685 15.1 111.034 15.1 108.215V45.6408C15.1 42.8221 14.9792 41.1712 14.7376 40.688C14.496 40.2048 13.7309 39.8827 12.4424 39.7216L5.7984 39.1176ZM38.656 39.7216H25.6096V74.2704H38.656C47.0315 74.2704 51.2192 69.3981 51.2192 59.6536V54.7008C51.2192 44.7147 47.0315 39.7216 38.656 39.7216ZM41.676 78.136H25.6096V114.134H41.676C50.4541 114.134 54.8432 108.94 54.8432 98.5512V93.5984C54.8432 88.6053 53.7157 84.78 51.4608 82.1224C49.2864 79.4648 46.0248 78.136 41.676 78.136ZM78.939 39.1176V35.856H112.521C120.414 35.856 126.454 37.7485 130.641 41.5336C134.91 45.2381 137.044 50.1909 137.044 56.392V60.1368C137.044 65.0493 135.675 69.2371 132.937 72.7C130.279 76.0824 126.454 78.4179 121.461 79.7064L136.923 108.215C137.97 110.148 138.735 111.517 139.218 112.322C139.701 113.047 140.144 113.53 140.547 113.772C141.03 113.933 141.674 114.054 142.48 114.134L147.916 114.859V118H129.675L110.589 80.7936H98.7502V108.215C98.7502 111.034 98.871 112.685 99.1126 113.168C99.3542 113.651 100.119 113.973 101.408 114.134L108.052 114.859V118H78.939V114.859L85.583 114.134C86.8716 113.973 87.6366 113.651 87.8782 113.168C88.1198 112.685 88.2406 111.034 88.2406 108.215V45.6408C88.2406 42.8221 88.1198 41.1712 87.8782 40.688C87.6366 40.2048 86.8716 39.8827 85.583 39.7216L78.939 39.1176ZM112.521 39.7216H98.7502V76.928H112.521C116.709 76.928 119.971 75.5992 122.306 72.9416C124.722 70.2035 125.93 66.0963 125.93 60.62V55.9088C125.93 50.4325 124.722 46.3656 122.306 43.708C119.971 41.0504 116.709 39.7216 112.521 39.7216ZM209.161 98.3096H212.302V118H154.439V114.859L161.083 114.134C162.372 113.973 163.137 113.651 163.378 113.168C163.62 112.685 163.741 111.034 163.741 108.215V45.6408C163.741 42.8221 163.62 41.1712 163.378 40.688C163.137 40.2048 162.372 39.8827 161.083 39.7216L154.439 39.1176V35.856H210.732V55.5464H207.712L204.209 42.8624C203.967 41.896 203.685 41.2115 203.363 40.8088C203.121 40.3256 202.598 40.0437 201.793 39.9632C200.987 39.8021 199.618 39.7216 197.685 39.7216H174.25V74.6328H190.437C192.37 74.6328 193.739 74.5925 194.545 74.512C195.35 74.3509 195.873 74.0691 196.115 73.6664C196.437 73.1832 196.719 72.4584 196.961 71.492L199.256 62.432H202.397V90.6992H199.256L196.961 81.6392C196.719 80.6728 196.437 79.9883 196.115 79.5856C195.873 79.1024 195.35 78.8205 194.545 78.74C193.739 78.5789 192.37 78.4984 190.437 78.4984H174.25V114.134H199.135C201.068 114.134 202.437 114.094 203.242 114.014C204.048 113.853 204.571 113.571 204.813 113.168C205.135 112.685 205.417 111.96 205.658 110.994L209.161 98.3096ZM274.403 39.1176V35.856H297.476V39.1176L290.832 39.7216C289.543 39.8827 288.778 40.2451 288.536 40.8088C288.295 41.292 288.174 42.9027 288.174 45.6408V118H282.255L238.284 43.8288V108.215C238.284 110.953 238.404 112.604 238.646 113.168C238.888 113.651 239.653 113.973 240.941 114.134L247.585 114.859V118H224.512V114.859L231.156 114.134C232.445 113.973 233.21 113.651 233.452 113.168C233.693 112.604 233.814 110.953 233.814 108.215V45.6408C233.814 42.9027 233.693 41.292 233.452 40.8088C233.21 40.2451 232.445 39.8827 231.156 39.7216L224.512 39.1176V35.856H245.411L283.704 100.605V45.6408C283.704 42.9027 283.584 41.292 283.342 40.8088C283.1 40.2451 282.335 39.8827 281.047 39.7216L274.403 39.1176ZM308.034 39.1176V35.856H342.342C352.167 35.856 359.696 39.0371 364.931 45.3992C370.166 51.7613 372.783 60.7408 372.783 72.3376V81.3976C372.783 93.0749 370.166 102.095 364.931 108.457C359.696 114.819 352.167 118 342.342 118H308.034V114.859L314.678 114.134C315.967 113.973 316.732 113.651 316.974 113.168C317.215 112.685 317.336 111.034 317.336 108.215V45.6408C317.336 42.8221 317.215 41.1712 316.974 40.688C316.732 40.2048 315.967 39.8827 314.678 39.7216L308.034 39.1176ZM342.1 39.7216H327.846V114.134H342.1C346.449 114.134 350.032 113.329 352.851 111.718C355.67 110.108 357.764 107.37 359.133 103.504C360.582 99.5579 361.307 94.2024 361.307 87.4376V66.2976C361.307 59.6133 360.582 54.3384 359.133 50.4728C357.764 46.6072 355.67 43.8691 352.851 42.2584C350.032 40.5672 346.449 39.7216 342.1 39.7216ZM400.446 114.859V118H377.494V114.859L384.018 114.134C384.903 114.054 385.548 113.933 385.95 113.772C386.353 113.53 386.715 113.047 387.038 112.322C387.44 111.517 387.923 110.148 388.487 108.215L411.802 35.856H419.412L442.968 108.215C443.532 110.148 443.975 111.517 444.297 112.322C444.699 113.047 445.102 113.53 445.505 113.772C445.907 113.933 446.511 114.054 447.317 114.134L453.961 114.859V118H424.606V114.859L431.25 114.134C432.539 113.973 433.223 113.651 433.304 113.168C433.465 112.604 433.103 110.953 432.217 108.215L427.264 92.7528H397.789L392.836 108.215C391.95 110.953 391.547 112.604 391.628 113.168C391.789 113.651 392.514 113.973 393.802 114.134L400.446 114.859ZM398.997 88.8872H426.056L412.526 46.8488L398.997 88.8872Z" fill="#A9A9A9"></path>
<path d="M15.4859 86.2203C14.9962 86.2203 14.5801 86.1224 14.2373 85.9266C13.8946 85.7307 13.7232 85.3635 13.7232 84.8249C13.7232 84.1394 13.8946 83.3559 14.2373 82.4746C14.5801 81.5932 14.9718 80.7363 15.4124 79.9039C15.8531 79.0226 16.2448 78.3126 16.5876 77.774C14.8738 79.5857 13.0866 81.2994 11.226 82.9153C10.2957 83.6987 9.26743 84.4331 8.14125 85.1186C7.01507 85.8041 5.81545 86.1469 4.54237 86.1469C4.05273 86.1469 3.70998 86 3.51412 85.7062C3.31827 85.3635 3.22034 84.9718 3.22034 84.5311C3.22034 84.2863 3.24482 84.1149 3.29379 84.0169C3.53861 82.1073 4.15066 80.1243 5.12995 78.0678C6.10923 76.0113 7.30886 74.0772 8.72882 72.2655C10.1488 70.4538 11.5932 68.9849 13.0622 67.8587C14.7269 66.5857 16.5631 65.9491 18.5706 65.9491H27.017C27.2618 65.9491 27.3842 66.0471 27.3842 66.2429C27.3842 66.6346 27.1639 66.8305 26.7232 66.8305C26.2335 66.8305 25.7439 67.1488 25.2543 67.7853C24.7646 68.3729 24.3974 68.8625 24.1526 69.2542C23.8098 69.7928 23.2712 70.6987 22.5367 71.9717C21.8023 73.2448 21.0433 74.6403 20.2599 76.1582C19.5254 77.6271 18.8889 78.9981 18.3503 80.2712C17.8117 81.5443 17.5424 82.4746 17.5424 83.0621C17.5424 83.7476 17.8851 84.0904 18.5706 84.0904C19.3051 84.0904 20.1375 83.7476 21.0678 83.0621C21.9981 82.3766 22.9285 81.5443 23.8588 80.565C24.8381 79.5367 25.7194 78.5329 26.5029 77.5537C27.3352 76.5254 27.9963 75.7175 28.4859 75.1299C28.7797 75.4237 28.7552 75.8399 28.4125 76.3785C28.1187 76.8682 27.8494 77.2599 27.6045 77.5537C26.6253 78.8267 25.4991 80.1488 24.226 81.5198C22.9529 82.8418 21.5575 83.968 20.0396 84.8983C18.5706 85.7797 17.0527 86.2203 15.4859 86.2203ZM7.55368 83.6497C8.14125 83.6497 8.94916 83.2335 9.97741 82.4011C11.0546 81.5198 12.2053 80.4426 13.4294 79.1695C14.6535 77.8474 15.8042 76.4764 16.8814 75.0565C17.9586 73.5876 18.8399 72.2655 19.5254 71.0904C20.2599 69.8663 20.6271 68.936 20.6271 68.2994C20.6271 67.7608 20.4558 67.3936 20.113 67.1977C19.8192 67.0019 19.4275 66.9039 18.9379 66.9039C18.1544 66.9039 17.2976 67.1977 16.3672 67.7853C15.4859 68.3239 14.7759 68.8625 14.2373 69.4011C13.6497 69.9397 12.9397 70.7966 12.1074 71.9717C11.3239 73.0979 10.5405 74.3465 9.75707 75.7175C8.97364 77.0885 8.31262 78.4105 7.77402 79.6836C7.23541 80.9567 6.96611 81.9849 6.96611 82.7684C6.96611 83.3559 7.16196 83.6497 7.55368 83.6497ZM50.2955 87.1017C50.0996 87.1017 50.0996 86.8814 50.2955 86.4407C50.5403 86 50.7606 85.5104 50.9565 84.9718C51.2013 84.4331 51.4461 83.8456 51.691 83.209C52.1806 82.0339 52.7192 80.7119 53.3068 79.2429C53.8943 77.774 54.4574 76.354 54.996 74.983C55.5346 73.5631 55.9998 72.3635 56.3915 71.3842C56.8322 70.3559 57.126 69.6949 57.2729 69.4011C56.5874 70.1356 55.755 71.0659 54.7757 72.1921C53.8454 73.2693 52.964 74.322 52.1316 75.3503C51.2992 76.3785 50.6627 77.1864 50.222 77.774C50.0751 77.9699 49.9527 78.0678 49.8548 78.0678C49.7569 78.0678 49.7079 77.9454 49.7079 77.7006C49.7079 77.3088 49.8303 76.9416 50.0751 76.5989C51.0055 75.4237 52.0337 74.1017 53.1599 72.6328C54.335 71.1638 55.3878 69.8173 56.3181 68.5932C57.2484 67.3201 57.836 66.4877 58.0808 66.096C58.6194 65.9981 59.4028 65.8512 60.4311 65.6553C61.5083 65.4595 62.2428 65.1902 62.6345 64.8474C62.7814 64.7005 62.9283 64.6271 63.0751 64.6271C63.1731 64.6271 63.222 64.725 63.222 64.9209C63.271 65.0678 63.222 65.2391 63.0751 65.435C62.7814 65.7778 62.2672 66.5857 61.5328 67.8587C60.8473 69.0828 60.0883 70.4538 59.2559 71.9717C58.4725 73.4896 57.738 74.8606 57.0525 76.0847C57.6401 75.3013 58.2766 74.5424 58.9621 73.8079C59.6476 73.0734 60.3087 72.3635 60.9452 71.678C61.5328 71.0904 62.3407 70.3559 63.3689 69.4746C64.3972 68.5932 65.4744 67.7853 66.6006 67.0508C67.7268 66.3164 68.706 65.9002 69.5384 65.8022C69.7343 65.7533 69.9057 65.7288 70.0526 65.7288C70.2484 65.7288 70.3953 65.7288 70.4932 65.7288C71.5704 65.7288 72.1091 66.1205 72.1091 66.9039C72.1091 67.4915 71.7908 68.2749 71.1542 69.2542C70.8115 69.7928 70.2729 70.6987 69.5384 71.9717C68.8529 73.1958 68.1429 74.5424 67.4085 76.0113C66.723 77.4313 66.1109 78.7778 65.5723 80.0508C65.0827 81.2749 64.8379 82.1808 64.8379 82.7684C64.8379 83.4539 65.1806 83.7966 65.8661 83.7966C66.6985 83.7966 67.6043 83.3804 68.5836 82.548C69.6119 81.7156 70.7136 80.6629 71.8887 79.3898C73.0639 78.0678 74.239 76.6723 75.4141 75.2034C75.5121 75.3013 75.561 75.4727 75.561 75.7175C75.561 76.0603 75.4386 76.403 75.1938 76.7458C74.9979 77.0395 74.8021 77.3088 74.6062 77.5537C74.1166 78.1902 73.4556 78.9981 72.6232 79.9774C71.8397 80.9077 71.0318 81.838 70.1994 82.7684C69.3671 83.6497 68.6081 84.3597 67.9226 84.8983C67.433 85.2411 66.7964 85.6083 66.013 86C65.2296 86.3917 64.4461 86.5876 63.6627 86.5876C62.7814 86.5876 62.1693 86.3672 61.8266 85.9266C61.4838 85.4369 61.3124 84.8493 61.3124 84.1638C61.3124 83.3804 61.4593 82.548 61.7531 81.6667C62.0469 80.7853 62.3652 79.9529 62.7079 79.1695C63.0996 78.3371 63.3934 77.725 63.5893 77.3333C64.4706 75.6196 65.2785 74.0038 66.013 72.4859C66.7475 70.968 67.2616 69.8908 67.5554 69.2542C67.7023 68.9604 67.7757 68.7156 67.7757 68.5198C67.7757 68.177 67.5064 68.1525 66.9678 68.4463C66.4292 68.7401 65.7682 69.1808 64.9848 69.7683C64.2503 70.3559 63.5648 70.9435 62.9283 71.5311C62.2917 72.0697 61.8755 72.4369 61.6797 72.6328C59.868 74.5424 58.2766 76.6723 56.9056 79.0226C55.5836 81.3239 54.4574 83.6987 53.5271 86.1469C52.8906 86.1959 52.254 86.3672 51.6175 86.661C50.981 86.9548 50.5403 87.1017 50.2955 87.1017ZM112.143 57.9435C111.458 57.9435 110.968 57.7231 110.674 57.2825C110.478 57.0376 110.38 56.7194 110.38 56.3277C110.38 55.5442 110.748 54.9077 111.482 54.418C112.021 54.1243 112.51 53.9774 112.951 53.9774C113.685 53.9774 114.2 54.1977 114.493 54.6384C114.689 54.8832 114.787 55.2015 114.787 55.5932C114.787 56.3766 114.395 57.0132 113.612 57.5028C113.171 57.7966 112.682 57.9435 112.143 57.9435ZM99.3634 86.2203C98.8738 86.2203 98.4576 86.1224 98.1148 85.9266C97.821 85.7307 97.6741 85.3635 97.6741 84.8249C97.6741 84.1394 97.8455 83.3314 98.1883 82.4011C98.58 81.4708 98.9962 80.5405 99.4369 79.6102C99.9265 78.6798 100.294 77.9209 100.539 77.3333C100.881 76.6478 101.297 75.7665 101.787 74.6893C102.326 73.5631 102.815 72.5103 103.256 71.5311C103.746 70.5028 104.088 69.7928 104.284 69.4011C103.599 70.1356 102.766 71.0659 101.787 72.1921C100.857 73.2693 99.9755 74.322 99.1431 75.3503C98.3107 76.3785 97.6741 77.1864 97.2335 77.774C97.0866 77.9699 96.9642 78.0678 96.8662 78.0678C96.7683 78.0678 96.7193 77.9454 96.7193 77.7006C96.7193 77.3088 96.8417 76.9416 97.0866 76.5989C98.0169 75.4237 99.0451 74.1017 100.171 72.6328C101.346 71.1638 102.399 69.8173 103.33 68.5932C104.26 67.3201 104.847 66.4877 105.092 66.096C105.631 65.9981 106.414 65.8512 107.443 65.6553C108.52 65.4595 109.254 65.1902 109.646 64.8474C109.793 64.7005 109.94 64.6271 110.087 64.6271C110.185 64.6271 110.233 64.725 110.233 64.9209C110.282 65.0678 110.233 65.2391 110.087 65.435C109.793 65.7778 109.279 66.6101 108.544 67.9322C107.81 69.2542 107.026 70.7231 106.194 72.339C105.41 73.9058 104.676 75.3258 103.991 76.5989C103.305 77.9209 102.717 79.194 102.228 80.4181C101.738 81.6422 101.493 82.5235 101.493 83.0621C101.493 83.7476 101.836 84.0904 102.522 84.0904C103.158 84.0904 103.966 83.6987 104.945 82.9153C105.974 82.1318 107.002 81.2015 108.03 80.1243C109.058 78.9981 109.964 77.9699 110.748 77.0395C110.992 76.7458 111.286 76.403 111.629 76.0113C112.021 75.5706 112.265 75.3013 112.363 75.2034C112.461 75.3013 112.51 75.4727 112.51 75.7175C112.461 76.0603 112.339 76.403 112.143 76.7458C111.947 77.0395 111.751 77.3088 111.556 77.5537C110.527 78.8267 109.401 80.1488 108.177 81.5198C106.953 82.8418 105.606 83.968 104.137 84.8983C102.668 85.7797 101.077 86.2203 99.3634 86.2203ZM139.787 86.4407C139.102 86.4407 138.514 86.1959 138.024 85.7062C137.535 85.2166 137.29 84.3597 137.29 83.1356C137.29 82.0584 137.363 80.7853 137.51 79.3164C137.706 77.8474 137.975 76.354 138.318 74.8361C138.661 73.2693 139.053 71.8983 139.493 70.7231C138.661 71.9473 137.731 73.2203 136.702 74.5424C135.674 75.8154 134.817 76.8926 134.132 77.774C133.985 77.9699 133.862 78.0678 133.764 78.0678C133.667 78.0678 133.618 77.9454 133.618 77.7006C133.618 77.3088 133.74 76.9416 133.985 76.5989C135.013 75.1789 136.164 73.5631 137.437 71.7514C138.759 69.9397 139.885 68.2994 140.815 66.8305C141.354 66.7326 141.99 66.5857 142.725 66.3898C143.508 66.194 144.071 65.9246 144.414 65.5819C144.659 65.435 144.806 65.3616 144.855 65.3616C145.002 65.3616 145.075 65.4595 145.075 65.6553C145.075 65.8022 145.002 65.9736 144.855 66.1695C144.414 66.806 143.925 67.7853 143.386 69.1073C142.896 70.4294 142.382 71.8983 141.844 73.5141C141.354 75.1299 140.938 76.7213 140.595 78.2881C140.301 79.806 140.154 81.1036 140.154 82.1808C140.154 82.9642 140.277 83.5273 140.522 83.8701C140.766 84.1638 141.085 84.3107 141.476 84.3107C142.015 84.3107 142.651 84.0414 143.386 83.5028C144.169 82.9642 144.83 82.4011 145.369 81.8136C146.054 81.0791 146.813 80.0998 147.646 78.8757C148.527 77.6516 149.335 76.354 150.07 74.983C150.853 73.612 151.441 72.3635 151.832 71.2373C152.126 70.4538 152.322 69.7928 152.42 69.2542C152.518 68.6666 152.567 68.2015 152.567 67.8587C152.567 67.2712 152.493 66.855 152.346 66.6101C152.199 66.3653 152.077 66.2184 151.979 66.1695C151.685 66.0715 151.538 65.9491 151.538 65.8022C151.538 65.7043 151.636 65.6309 151.832 65.5819C152.028 65.484 152.224 65.484 152.42 65.5819C153.056 65.7778 153.693 66.0715 154.329 66.4633C154.966 66.806 155.284 67.4915 155.284 68.5198C155.284 68.7646 155.26 69.0584 155.211 69.4011C155.162 69.6949 155.064 70.0376 154.917 70.4294C154.623 71.2128 154.011 72.3145 153.081 73.7344C152.199 75.1544 151.171 76.6478 149.996 78.2147C148.821 79.7815 147.646 81.2015 146.471 82.4746C145.296 83.7476 144.267 84.6535 143.386 85.1921C142.798 85.5348 142.186 85.8286 141.55 86.0734C140.913 86.3183 140.326 86.4407 139.787 86.4407ZM182.308 86.5876C180.301 86.5876 178.905 86.1959 178.122 85.4124C177.339 84.629 176.947 83.6742 176.947 82.548C176.947 81.1281 177.314 79.6102 178.049 77.9943C178.832 76.3785 179.566 75.0075 180.252 73.8813C181.035 72.7062 182.088 71.4821 183.41 70.209C184.732 68.936 186.177 67.8587 187.744 66.9774C189.31 66.096 190.828 65.6553 192.297 65.6553C193.57 65.6553 194.452 65.9736 194.941 66.6101C195.431 67.1977 195.676 67.9077 195.676 68.7401C195.676 70.258 195.211 71.5066 194.28 72.4859C193.399 73.4651 192.297 74.2731 190.975 74.9096C189.653 75.4972 188.38 75.9868 187.156 76.3785C186.421 76.5744 185.565 76.7702 184.585 76.9661C183.606 77.1619 182.676 77.2599 181.794 77.2599C181.452 78.1412 181.182 78.9981 180.986 79.8305C180.791 80.6629 180.693 81.4218 180.693 82.1073C180.693 82.9397 180.889 83.6252 181.28 84.1638C181.721 84.7024 182.431 84.9718 183.41 84.9718C183.802 84.9718 184.267 84.9228 184.806 84.8249C185.344 84.7269 185.932 84.58 186.568 84.3842C188.037 83.8945 189.482 83.1111 190.902 82.0339C192.322 80.9567 193.619 79.806 194.794 78.5819C196.018 77.3088 196.949 76.2561 197.585 75.4237C197.732 75.5706 197.806 75.742 197.806 75.9378C197.806 76.1827 197.634 76.5744 197.292 77.113C196.312 78.484 195.039 79.9039 193.472 81.3729C191.905 82.8418 190.167 84.0904 188.258 85.1186C186.348 86.0979 184.365 86.5876 182.308 86.5876ZM182.382 75.7909C183.018 75.8399 183.728 75.8399 184.512 75.7909C185.344 75.693 186.152 75.5216 186.936 75.2768C188.943 74.6893 190.388 73.7589 191.269 72.4859C192.199 71.1638 192.664 69.9887 192.664 68.9604C192.664 68.3729 192.542 67.8832 192.297 67.4915C192.052 67.0998 191.661 66.9039 191.122 66.9039C189.702 66.9039 188.429 67.4425 187.303 68.5198C186.177 69.548 185.197 70.7476 184.365 72.1186C183.533 73.4896 182.872 74.7137 182.382 75.7909ZM219.621 87.0282C219.425 87.0282 219.425 86.8324 219.621 86.4407C219.866 86 220.086 85.5104 220.282 84.9718C220.527 84.4331 220.772 83.8456 221.016 83.209C221.506 82.0339 222.045 80.7119 222.632 79.2429C223.22 77.774 223.783 76.354 224.322 74.983C224.86 73.5631 225.325 72.3635 225.717 71.3842C226.158 70.3559 226.452 69.6949 226.598 69.4011C225.913 70.1356 225.081 71.0659 224.101 72.1921C223.171 73.2693 222.29 74.322 221.457 75.3503C220.625 76.3785 219.988 77.1864 219.548 77.774C219.401 77.9699 219.278 78.0678 219.18 78.0678C219.082 78.0678 219.033 77.9454 219.033 77.7006C219.033 77.3088 219.156 76.9416 219.401 76.5989C220.331 75.4237 221.359 74.1017 222.485 72.6328C223.661 71.1638 224.713 69.8173 225.644 68.5932C226.574 67.3201 227.161 66.4877 227.406 66.096C227.945 65.9981 228.728 65.8512 229.757 65.6553C230.834 65.4595 231.568 65.1902 231.96 64.8474C232.107 64.7005 232.254 64.6271 232.401 64.6271C232.499 64.6271 232.548 64.725 232.548 64.9209C232.597 65.0678 232.548 65.2391 232.401 65.435C232.107 65.7288 231.666 66.3653 231.079 67.3446C230.54 68.3239 229.928 69.4501 229.242 70.7231C228.557 71.9962 227.896 73.2203 227.259 74.3955C227.749 73.661 228.386 72.8041 229.169 71.8248C230.001 70.7966 230.907 69.8173 231.887 68.887C232.866 67.9077 233.845 67.0998 234.824 66.4633C235.853 65.8267 236.807 65.5085 237.689 65.5085C238.325 65.5085 238.864 65.6553 239.305 65.9491C239.745 66.194 240.088 66.6591 240.333 67.3446C240.48 67.6874 240.553 68.0791 240.553 68.5198C240.553 69.3521 240.333 70.1601 239.892 70.9435C239.5 71.678 239.207 72.241 239.011 72.6328C238.962 72.7796 238.791 72.9265 238.497 73.0734C238.203 73.1714 238.081 73.1224 238.129 72.9265C238.178 72.6817 238.203 72.4369 238.203 72.1921C238.252 71.9473 238.276 71.678 238.276 71.3842C238.276 70.5518 238.105 69.7928 237.762 69.1073C237.468 68.4218 236.905 68.0791 236.073 68.0791C235.29 68.0791 234.335 68.5687 233.209 69.548C232.082 70.5273 230.956 71.6535 229.83 72.9265C228.41 74.5913 227.284 76.1827 226.452 77.7006C225.619 79.1695 224.934 80.6139 224.395 82.0339C224.101 82.8173 223.807 83.6008 223.514 84.3842C223.22 85.1186 223 85.7062 222.853 86.1469C222.216 86.1959 221.58 86.3427 220.943 86.5876C220.306 86.8814 219.866 87.0282 219.621 87.0282ZM266.367 87.1751C265.485 87.1751 264.555 87.0527 263.576 86.8079C262.597 86.5631 261.715 86.1714 260.932 85.6328C260.197 85.0452 259.708 84.2618 259.463 83.2825C259.414 83.1356 259.389 82.9153 259.389 82.6215C259.389 81.936 259.536 81.177 259.83 80.3446C260.173 79.5122 260.589 78.9247 261.079 78.5819C261.274 78.484 261.421 78.484 261.519 78.5819C261.666 78.6798 261.691 78.7778 261.593 78.8757C261.544 79.0226 261.47 79.2184 261.372 79.4633C261.274 79.6591 261.201 79.8795 261.152 80.1243C261.005 81.3974 261.274 82.5235 261.96 83.5028C262.254 83.8945 262.597 84.2618 262.988 84.6045C263.429 84.9473 263.845 85.2411 264.237 85.4859C264.58 85.6817 264.996 85.8286 265.485 85.9266C265.975 85.9755 266.465 86 266.954 86C267.738 86 268.497 85.9021 269.231 85.7062C269.966 85.5104 270.504 85.1921 270.847 84.7514C271.484 83.968 271.802 83.0866 271.802 82.1073C271.802 81.3729 271.606 80.5894 271.214 79.7571C270.823 78.9247 270.21 78.0433 269.378 77.113C268.839 76.5254 268.325 75.8889 267.836 75.2034C267.346 74.5179 267.028 73.7834 266.881 73C266.832 72.8531 266.783 72.7062 266.734 72.5593C266.734 72.4124 266.734 72.2655 266.734 72.1186C266.097 73.049 265.436 73.9303 264.751 74.7627C264.114 75.5461 263.551 76.2316 263.062 76.8192C262.866 77.113 262.694 77.2599 262.548 77.2599C262.45 77.2599 262.401 77.1619 262.401 76.9661C262.401 76.5254 262.597 76.0603 262.988 75.5706C263.38 75.1299 263.821 74.5913 264.31 73.9548C264.8 73.2693 265.192 72.7307 265.485 72.339C266.318 71.1149 266.93 70.1601 267.322 69.4746C267.762 68.7401 268.227 68.0791 268.717 67.4915C269.256 66.855 269.917 66.3408 270.7 65.9491C271.532 65.5574 272.389 65.3616 273.271 65.3616C274.299 65.3616 275.229 65.5329 276.062 65.8757C276.943 66.1695 277.408 66.9529 277.457 68.226C277.457 68.8135 277.335 69.4256 277.09 70.0621C276.894 70.6497 276.674 71.2128 276.429 71.7514C276.282 72.0452 276.062 72.2655 275.768 72.4124C275.523 72.5103 275.401 72.4614 275.401 72.2655C275.401 72.0697 275.425 71.8493 275.474 71.6045C275.523 71.3597 275.548 71.1393 275.548 70.9435C275.548 70.1111 275.401 69.3766 275.107 68.7401C274.862 68.0546 274.495 67.565 274.005 67.2712C273.516 66.9284 273.001 66.757 272.463 66.757C271.679 66.757 270.92 67.0753 270.186 67.7118C269.452 68.2994 269.084 69.0828 269.084 70.0621C269.084 70.1601 269.084 70.2825 269.084 70.4294C269.084 70.5763 269.109 70.6987 269.158 70.7966C269.354 71.58 269.941 72.4614 270.92 73.4407C271.9 74.4199 272.659 75.2768 273.197 76.0113C274.128 77.2844 274.593 78.5819 274.593 79.9039C274.593 81.226 274.201 82.4501 273.418 83.5763C272.683 84.6535 271.679 85.5104 270.406 86.1469C269.182 86.8324 267.836 87.1751 266.367 87.1751ZM311.788 86.2203C311.298 86.2203 310.882 86.1224 310.539 85.9266C310.196 85.7307 310.025 85.3635 310.025 84.8249C310.025 84.1394 310.196 83.3559 310.539 82.4746C310.882 81.5932 311.273 80.7363 311.714 79.9039C312.155 79.0226 312.547 78.3126 312.889 77.774C311.176 79.5857 309.388 81.2994 307.528 82.9153C306.597 83.6987 305.569 84.4331 304.443 85.1186C303.317 85.8041 302.117 86.1469 300.844 86.1469C300.354 86.1469 300.012 86 299.816 85.7062C299.62 85.3635 299.522 84.9718 299.522 84.5311C299.522 84.2863 299.547 84.1149 299.596 84.0169C299.84 82.1073 300.452 80.1243 301.432 78.0678C302.411 76.0113 303.611 74.0772 305.031 72.2655C306.451 70.4538 307.895 68.9849 309.364 67.8587C311.029 66.5857 312.865 65.9491 314.872 65.9491H323.319C323.564 65.9491 323.686 66.0471 323.686 66.2429C323.686 66.6346 323.466 66.8305 323.025 66.8305C322.535 66.8305 322.046 67.1488 321.556 67.7853C321.066 68.3729 320.699 68.8625 320.454 69.2542C320.112 69.7928 319.573 70.6987 318.838 71.9717C318.104 73.2448 317.345 74.6403 316.562 76.1582C315.827 77.6271 315.191 78.9981 314.652 80.2712C314.113 81.5443 313.844 82.4746 313.844 83.0621C313.844 83.7476 314.187 84.0904 314.872 84.0904C315.607 84.0904 316.439 83.7476 317.37 83.0621C318.3 82.3766 319.23 81.5443 320.161 80.565C321.14 79.5367 322.021 78.5329 322.805 77.5537C323.637 76.5254 324.298 75.7175 324.788 75.1299C325.081 75.4237 325.057 75.8399 324.714 76.3785C324.42 76.8682 324.151 77.2599 323.906 77.5537C322.927 78.8267 321.801 80.1488 320.528 81.5198C319.255 82.8418 317.859 83.968 316.341 84.8983C314.872 85.7797 313.354 86.2203 311.788 86.2203ZM303.855 83.6497C304.443 83.6497 305.251 83.2335 306.279 82.4011C307.356 81.5198 308.507 80.4426 309.731 79.1695C310.955 77.8474 312.106 76.4764 313.183 75.0565C314.26 73.5876 315.142 72.2655 315.827 71.0904C316.562 69.8663 316.929 68.936 316.929 68.2994C316.929 67.7608 316.757 67.3936 316.415 67.1977C316.121 67.0019 315.729 66.9039 315.24 66.9039C314.456 66.9039 313.599 67.1977 312.669 67.7853C311.788 68.3239 311.078 68.8625 310.539 69.4011C309.951 69.9397 309.241 70.7966 308.409 71.9717C307.626 73.0979 306.842 74.3465 306.059 75.7175C305.275 77.0885 304.614 78.4105 304.076 79.6836C303.537 80.9567 303.268 81.9849 303.268 82.7684C303.268 83.3559 303.464 83.6497 303.855 83.6497ZM313.403 61.7627C313.354 61.7627 313.306 61.6892 313.257 61.5423C313.208 61.3465 313.208 61.1996 313.257 61.1017C314.236 60.3182 315.338 59.4369 316.562 58.4576C317.835 57.4293 319.132 56.3521 320.454 55.226C321.14 54.5894 321.654 54.1732 321.997 53.9774C322.339 53.7815 322.609 53.6836 322.805 53.6836C322.951 53.6836 323.025 53.9039 323.025 54.3446C323.025 54.6384 323 54.9567 322.951 55.2994C322.903 55.6422 322.829 55.8625 322.731 55.9604C322.339 56.4011 321.58 56.9887 320.454 57.7231C319.377 58.4086 318.177 59.1186 316.855 59.8531C315.533 60.5875 314.383 61.2241 313.403 61.7627ZM346.597 87.0282C346.401 87.0282 346.401 86.8324 346.597 86.4407C346.842 86 347.062 85.5104 347.258 84.9718C347.503 84.4331 347.748 83.8456 347.993 83.209C348.482 82.0339 349.021 80.7119 349.608 79.2429C350.196 77.774 350.759 76.354 351.298 74.983C351.836 73.5631 352.302 72.3635 352.693 71.3842C353.134 70.3559 353.428 69.6949 353.575 69.4011C352.889 70.1356 352.057 71.0659 351.077 72.1921C350.147 73.2693 349.266 74.322 348.433 75.3503C347.601 76.3785 346.964 77.1864 346.524 77.774C346.377 77.9699 346.254 78.0678 346.157 78.0678C346.059 78.0678 346.01 77.9454 346.01 77.7006C346.01 77.3088 346.132 76.9416 346.377 76.5989C347.307 75.4237 348.335 74.1017 349.462 72.6328C350.637 71.1638 351.689 69.8173 352.62 68.5932C353.55 67.3201 354.138 66.4877 354.383 66.096C354.921 65.9981 355.705 65.8512 356.733 65.6553C357.81 65.4595 358.544 65.1902 358.936 64.8474C359.083 64.7005 359.23 64.6271 359.377 64.6271C359.475 64.6271 359.524 64.725 359.524 64.9209C359.573 65.0678 359.524 65.2391 359.377 65.435C359.083 65.7288 358.642 66.3653 358.055 67.3446C357.516 68.3239 356.904 69.4501 356.219 70.7231C355.533 71.9962 354.872 73.2203 354.236 74.3955C354.725 73.661 355.362 72.8041 356.145 71.8248C356.978 70.7966 357.883 69.8173 358.863 68.887C359.842 67.9077 360.821 67.0998 361.801 66.4633C362.829 65.8267 363.784 65.5085 364.665 65.5085C365.302 65.5085 365.84 65.6553 366.281 65.9491C366.722 66.194 367.064 66.6591 367.309 67.3446C367.456 67.6874 367.529 68.0791 367.529 68.5198C367.529 69.3521 367.309 70.1601 366.868 70.9435C366.477 71.678 366.183 72.241 365.987 72.6328C365.938 72.7796 365.767 72.9265 365.473 73.0734C365.179 73.1714 365.057 73.1224 365.106 72.9265C365.155 72.6817 365.179 72.4369 365.179 72.1921C365.228 71.9473 365.253 71.678 365.253 71.3842C365.253 70.5518 365.081 69.7928 364.738 69.1073C364.445 68.4218 363.882 68.0791 363.049 68.0791C362.266 68.0791 361.311 68.5687 360.185 69.548C359.059 70.5273 357.932 71.6535 356.806 72.9265C355.386 74.5913 354.26 76.1827 353.428 77.7006C352.595 79.1695 351.91 80.6139 351.371 82.0339C351.077 82.8173 350.784 83.6008 350.49 84.3842C350.196 85.1186 349.976 85.7062 349.829 86.1469C349.192 86.1959 348.556 86.3427 347.919 86.5876C347.283 86.8814 346.842 87.0282 346.597 87.0282ZM404.213 57.9435C403.528 57.9435 403.038 57.7231 402.744 57.2825C402.548 57.0376 402.45 56.7194 402.45 56.3277C402.45 55.5442 402.818 54.9077 403.552 54.418C404.091 54.1243 404.58 53.9774 405.021 53.9774C405.755 53.9774 406.27 54.1977 406.563 54.6384C406.759 54.8832 406.857 55.2015 406.857 55.5932C406.857 56.3766 406.465 57.0132 405.682 57.5028C405.241 57.7966 404.752 57.9435 404.213 57.9435ZM391.433 86.2203C390.944 86.2203 390.528 86.1224 390.185 85.9266C389.891 85.7307 389.744 85.3635 389.744 84.8249C389.744 84.1394 389.915 83.3314 390.258 82.4011C390.65 81.4708 391.066 80.5405 391.507 79.6102C391.996 78.6798 392.364 77.9209 392.608 77.3333C392.951 76.6478 393.367 75.7665 393.857 74.6893C394.396 73.5631 394.885 72.5103 395.326 71.5311C395.816 70.5028 396.158 69.7928 396.354 69.4011C395.669 70.1356 394.836 71.0659 393.857 72.1921C392.927 73.2693 392.045 74.322 391.213 75.3503C390.381 76.3785 389.744 77.1864 389.303 77.774C389.157 77.9699 389.034 78.0678 388.936 78.0678C388.838 78.0678 388.789 77.9454 388.789 77.7006C388.789 77.3088 388.912 76.9416 389.157 76.5989C390.087 75.4237 391.115 74.1017 392.241 72.6328C393.416 71.1638 394.469 69.8173 395.399 68.5932C396.33 67.3201 396.917 66.4877 397.162 66.096C397.701 65.9981 398.484 65.8512 399.512 65.6553C400.59 65.4595 401.324 65.1902 401.716 64.8474C401.863 64.7005 402.01 64.6271 402.157 64.6271C402.254 64.6271 402.303 64.725 402.303 64.9209C402.352 65.0678 402.303 65.2391 402.157 65.435C401.863 65.7778 401.349 66.6101 400.614 67.9322C399.88 69.2542 399.096 70.7231 398.264 72.339C397.48 73.9058 396.746 75.3258 396.06 76.5989C395.375 77.9209 394.787 79.194 394.298 80.4181C393.808 81.6422 393.563 82.5235 393.563 83.0621C393.563 83.7476 393.906 84.0904 394.592 84.0904C395.228 84.0904 396.036 83.6987 397.015 82.9153C398.044 82.1318 399.072 81.2015 400.1 80.1243C401.128 78.9981 402.034 77.9699 402.818 77.0395C403.062 76.7458 403.356 76.403 403.699 76.0113C404.091 75.5706 404.335 75.3013 404.433 75.2034C404.531 75.3013 404.58 75.4727 404.58 75.7175C404.531 76.0603 404.409 76.403 404.213 76.7458C404.017 77.0395 403.821 77.3088 403.625 77.5537C402.597 78.8267 401.471 80.1488 400.247 81.5198C399.023 82.8418 397.676 83.968 396.207 84.8983C394.738 85.7797 393.147 86.2203 391.433 86.2203ZM427.01 86.1469C426.226 86.1469 425.516 86 424.88 85.7062C424.292 85.3635 423.998 84.6535 423.998 83.5763C423.998 81.8625 424.439 80.1488 425.32 78.435C426.202 76.6723 427.107 75.1299 428.038 73.8079C428.87 72.6817 429.801 71.629 430.829 70.6497C431.906 69.6215 433.057 68.7401 434.281 68.0056C435.064 67.516 436.117 67.0019 437.439 66.4633C438.81 65.8757 439.961 65.5819 440.891 65.5819C441.674 65.5819 442.36 65.8022 442.947 66.2429C443.535 66.6346 443.829 67.3691 443.829 68.4463C443.829 70.1111 443.388 71.8248 442.507 73.5876C441.674 75.3013 440.793 76.8192 439.863 78.1412C439.422 78.7288 438.981 79.2919 438.541 79.8305C438.1 80.3201 437.61 80.8343 437.072 81.3729C438.883 81.3729 440.548 80.8588 442.066 79.8305C443.584 78.7533 444.906 77.4557 446.032 75.9378L446.179 75.7909C446.326 75.7909 446.399 75.9378 446.399 76.2316C446.399 76.5744 446.301 76.8926 446.106 77.1864C445.126 78.5574 443.902 79.7815 442.433 80.8588C440.964 81.887 439.3 82.4011 437.439 82.4011C437.243 82.4011 437.047 82.4011 436.851 82.4011C436.656 82.4011 436.46 82.3766 436.264 82.3277C433.522 84.8738 430.437 86.1469 427.01 86.1469ZM428.919 84.8983C429.605 84.8983 430.339 84.6535 431.123 84.1638C431.955 83.6742 432.591 83.209 433.032 82.7684C433.865 81.936 434.623 81.0546 435.309 80.1243C435.994 79.145 436.631 78.1657 437.219 77.1864C437.904 76.0113 438.59 74.6158 439.275 73C439.961 71.3842 440.303 69.8663 440.303 68.4463C440.303 67.3201 439.912 66.757 439.128 66.757C438.492 66.757 437.708 67.0263 436.778 67.565C435.897 68.1036 435.236 68.5932 434.795 69.0339C433.13 70.7476 431.735 72.6083 430.608 74.6158C429.972 75.742 429.286 77.064 428.552 78.5819C427.817 80.0998 427.45 81.4953 427.45 82.7684C427.45 82.9642 427.45 83.1601 427.45 83.3559C427.499 83.5028 427.548 83.6742 427.597 83.8701C427.793 84.5556 428.234 84.8983 428.919 84.8983Z" fill="#2F2F2F"></path>
</svg>
